<svg width="164" height="155" viewBox="0 0 164 155" fill="none" xmlns="http://www.w3.org/2000/svg">
<path d="M100.612 148.435L60.3181 153.718L49.3256 126.425L85.4591 121.688C86.6498 121.532 87.8588 121.776 88.8958 122.382C89.9328 122.987 90.739 123.92 91.1876 125.035L100.612 148.435Z" fill="white"/>
<path d="M49.3269 126.425L85.4591 121.688H51.6489L14.8955 126.946L49.3269 126.425Z" fill="#28CACF"/>
<path d="M14.8955 127.885C14.6586 127.884 14.4308 127.794 14.2579 127.632C14.0848 127.47 13.9793 127.249 13.9625 127.012C13.9458 126.776 14.0189 126.543 14.1673 126.357C14.3156 126.173 14.5284 126.052 14.7627 126.017L51.5148 120.757C51.5593 120.75 51.604 120.748 51.6488 120.748H85.464C85.7019 120.749 85.9304 120.839 86.1039 121.002C86.2774 121.165 86.3826 121.387 86.3985 121.624C86.4144 121.861 86.3397 122.095 86.1896 122.281C86.0394 122.465 85.8249 122.585 85.5893 122.618L49.4483 127.357C49.412 127.357 49.377 127.363 49.3406 127.364L14.9105 127.885H14.8955ZM51.7152 122.628L29.6564 125.784L49.258 125.487L71.0675 122.628H51.7152Z" fill="#28CACF"/>
<path d="M110.769 126.425L147.962 122.465L118.437 121.886L76.9577 126.425H110.769Z" fill="#28CACF"/>
<path d="M110.769 127.364H76.9539C76.7048 127.378 76.4606 127.292 76.2749 127.125C76.0892 126.958 75.9774 126.724 75.9639 126.476C75.9505 126.227 76.0365 125.983 76.2032 125.796C76.3698 125.611 76.6034 125.499 76.8525 125.486L118.332 120.948C118.375 120.944 118.416 120.944 118.457 120.948L147.982 121.525C148.231 121.514 148.475 121.603 148.658 121.772C148.842 121.94 148.951 122.176 148.962 122.423C148.974 122.673 148.885 122.917 148.716 123.1C148.548 123.284 148.312 123.393 148.063 123.404L110.867 127.364C110.836 127.362 110.804 127.364 110.769 127.364ZM94.1809 125.486H110.719L133.012 123.106L118.476 122.822L94.1809 125.486Z" fill="#28CACF"/>
<path d="M81.6693 97.3014L118.872 93.2749L83.752 93.2361L47.8591 98.0504L81.6693 97.3014Z" fill="#28CACF"/>
<path d="M47.8578 98.9898C47.6201 98.989 47.3914 98.8982 47.2179 98.7355C47.0445 98.5728 46.9393 98.3504 46.9234 98.1132C46.9075 97.876 46.9821 97.6416 47.1324 97.4572C47.2826 97.2728 47.497 97.1524 47.7326 97.1199L83.6268 92.3044C83.6684 92.2994 83.7102 92.2969 83.752 92.2969L118.872 92.3357C119.111 92.3377 119.34 92.4308 119.513 92.596C119.686 92.7611 119.79 92.9861 119.802 93.2248C119.815 93.4635 119.736 93.6982 119.582 93.8808C119.428 94.0635 119.21 94.1805 118.972 94.2081L81.7707 98.2346C81.744 98.2365 81.7172 98.2365 81.6905 98.2346L47.8753 98.986L47.8578 98.9898ZM83.8184 94.1705L64.7153 96.7379L81.6104 96.3622L101.64 94.1943L83.8184 94.1705Z" fill="#28CACF"/>
<path d="M79.3686 5.20501C79.3686 5.20501 84.5999 -1.53048 92.6617 1.97628C100.723 5.48304 105.733 16.8387 116.081 15.3358C126.43 13.8329 141.964 2.31068 162.838 8.65666C162.838 8.65666 147.308 8.48884 135.786 20.3455C126.188 30.2207 127.436 40.0497 111.239 41.5526C100.468 42.5545 86.3771 29.6972 79.3636 40.3841L79.3686 5.20501Z" fill="#0A76DB"/>
<path d="M110.004 42.5482C106.121 42.5482 101.958 41.0916 97.9231 39.6777C94.2372 38.3864 90.7555 37.1666 87.6533 37.0589C84.3344 36.9436 81.9523 38.1635 80.1576 40.8988C80.0467 41.0677 79.8843 41.1965 79.6944 41.2657C79.5046 41.335 79.2973 41.3412 79.1037 41.2834C78.91 41.2256 78.7401 41.1069 78.6193 40.9449C78.4985 40.7828 78.4331 40.5862 78.433 40.384V5.20493C78.4326 4.9964 78.5017 4.79364 78.6296 4.62882C79.7211 3.32869 81.0508 2.24898 82.5472 1.44768C84.8429 0.212802 88.5262 -0.847993 93.0362 1.11329C96.206 2.49095 98.9087 5.01206 101.523 7.44801C105.843 11.4758 109.924 15.2794 115.951 14.4052C118.852 13.9844 122.193 12.742 126.062 11.3042C130.861 9.52075 136.3 7.49935 142.468 6.47864C149.637 5.2926 156.393 5.7109 163.121 7.7561C163.337 7.82147 163.524 7.96287 163.644 8.15437C163.766 8.34586 163.813 8.57455 163.778 8.79836C163.744 9.02204 163.631 9.22593 163.458 9.37222C163.285 9.5185 163.064 9.59753 162.838 9.59464C162.8 9.59464 158.975 9.57461 153.82 10.9723C149.095 12.2585 142.248 15.0414 136.463 20.9916C133.426 24.1151 131.453 27.3101 129.716 30.128C125.977 36.1872 122.748 41.4198 111.329 42.4793C110.896 42.5253 110.454 42.5482 110.004 42.5482ZM87.2249 35.1727C87.3865 35.1727 87.5493 35.1727 87.7146 35.1815C91.1062 35.2992 94.8872 36.6243 98.5443 37.9042C102.853 39.4134 107.311 40.9739 111.157 40.617C121.642 39.6451 124.359 35.2429 128.118 29.1511C129.908 26.2505 131.937 22.9629 135.117 19.6904C141.217 13.4133 148.422 10.4926 153.392 9.14753C154.782 8.77181 156.075 8.49377 157.228 8.28963C145.114 6.22941 135.027 9.97788 126.717 13.0663C122.747 14.5417 119.319 15.8217 116.22 16.265C115.558 16.3623 114.888 16.4118 114.216 16.4128C108.386 16.4128 104.254 12.5616 100.244 8.82316C97.6313 6.38846 95.1627 4.08778 92.2897 2.83787C89.2463 1.51406 86.2894 1.59296 83.5003 3.07081C82.3038 3.7103 81.2251 4.54892 80.3104 5.5506V37.7777C82.1477 36.0306 84.4333 35.1727 87.2249 35.1727Z" fill="#0A76DB"/>
<path d="M144.752 36.4679C144.594 36.468 144.44 36.4283 144.301 36.3525C144.163 36.2769 144.045 36.1674 143.96 36.0346C143.875 35.9017 143.825 35.7495 143.815 35.5922C143.804 35.4348 143.834 35.2772 143.899 35.1341C145.533 31.6582 147.908 28.5823 150.857 26.1223C153.807 23.6624 157.258 21.8784 160.97 20.8954C161.092 20.8605 161.218 20.8504 161.342 20.8653C161.468 20.8802 161.588 20.92 161.697 20.9824C161.806 21.0446 161.901 21.1282 161.977 21.228C162.054 21.3279 162.109 21.442 162.14 21.5636C162.171 21.6853 162.179 21.812 162.16 21.9362C162.141 22.0605 162.099 22.1797 162.032 22.2869C161.967 22.3941 161.881 22.4872 161.779 22.5606C161.678 22.6338 161.562 22.6861 161.439 22.7139C157.992 23.6184 154.787 25.2707 152.051 27.5533C149.314 29.836 147.114 32.6931 145.604 35.9218C145.529 36.0848 145.409 36.2229 145.259 36.3196C145.107 36.4164 144.932 36.4679 144.752 36.4679Z" fill="#28CACF"/>
<path d="M153.65 34.9724C153.476 34.9719 153.306 34.923 153.158 34.8312C153.009 34.7394 152.89 34.6083 152.812 34.4525C152.733 34.2966 152.701 34.1221 152.716 33.9485C152.732 33.7751 152.795 33.6091 152.899 33.4695C154.581 31.207 156.879 29.4765 159.516 28.4849C159.633 28.437 159.758 28.4131 159.885 28.4146C160.01 28.4161 160.135 28.4429 160.25 28.4934C160.366 28.5439 160.469 28.6171 160.556 28.7086C160.642 28.8001 160.71 28.9082 160.754 29.0262C160.798 29.1443 160.818 29.2699 160.811 29.3958C160.806 29.5216 160.775 29.645 160.721 29.7587C160.667 29.8723 160.59 29.9739 160.496 30.0574C160.402 30.1408 160.292 30.2044 160.171 30.2445C157.874 31.1083 155.874 32.6152 154.41 34.5854C154.324 34.7052 154.21 34.8029 154.077 34.8702C153.946 34.9374 153.799 34.9724 153.65 34.9724Z" fill="#28CACF"/>
<path d="M132.816 120.089L90.634 124.598L80.6848 98.1519L117.454 93.2825C120.026 92.9606 122.501 94.3383 123.466 96.6289L132.816 120.089Z" fill="white"/>
<path d="M162.055 148.435L121.761 153.718L108.049 127.248L146.475 122.511C149.08 122.189 151.586 123.567 152.568 125.858L162.055 148.435Z" fill="white"/>
<path d="M60.3181 153.718H0.939804L10.6535 130.479C11.1168 129.385 11.8929 128.453 12.8845 127.798C13.876 127.143 15.0387 126.796 16.2268 126.8H45.2553C46.4518 126.796 47.6225 127.148 48.6183 127.81C49.614 128.474 50.39 129.418 50.8473 130.524L60.3181 153.718Z" fill="#28CACF"/>
<path d="M60.3181 154.657H0.939812C0.785014 154.657 0.632595 154.619 0.496032 154.547C0.359494 154.473 0.243132 154.368 0.157316 154.239C0.0715009 154.11 0.0189114 153.962 0.00423307 153.808C-0.0104578 153.654 0.0132254 153.499 0.073166 153.356L9.78687 130.117C10.3188 128.85 11.2145 127.769 12.3608 127.011C13.5072 126.253 14.8526 125.853 16.2268 125.859H45.2553C46.6391 125.851 47.9938 126.257 49.1451 127.025C50.2965 127.793 51.192 128.887 51.7165 130.167L61.1885 153.366C61.2469 153.509 61.2689 153.664 61.2528 153.818C61.2366 153.972 61.1829 154.12 61.0962 154.247C61.0095 154.375 60.8926 154.48 60.7558 154.552C60.6189 154.624 60.4665 154.662 60.3118 154.661L60.3181 154.657ZM2.35003 152.778H58.9204L49.9769 130.879C49.593 129.944 48.9382 129.145 48.0969 128.585C47.2554 128.027 46.2657 127.731 45.2553 127.739H16.2268C15.2235 127.733 14.2407 128.023 13.4028 128.575C12.5651 129.128 11.91 129.917 11.5202 130.841L2.35003 152.778Z" fill="#28CACF"/>
<path d="M18.2394 141.092C18.0457 141.092 17.8566 141.032 17.6983 140.921C17.5398 140.809 17.42 140.65 17.355 140.468C17.2899 140.286 17.283 140.088 17.3351 139.9C17.3872 139.713 17.4956 139.548 17.6458 139.425L23.1351 134.945C23.2308 134.868 23.3409 134.809 23.459 134.774C23.5772 134.739 23.7012 134.726 23.824 134.739C23.9467 134.751 24.0658 134.787 24.1745 134.846C24.2831 134.905 24.3792 134.984 24.4571 135.081C24.5351 135.176 24.5934 135.286 24.6288 135.404C24.6642 135.521 24.6761 135.647 24.6636 135.769C24.6511 135.892 24.6145 136.011 24.556 136.119C24.4974 136.228 24.4181 136.324 24.3224 136.402L18.8306 140.882C18.6638 141.018 18.4549 141.092 18.2394 141.092Z" fill="#005A5F"/>
<path d="M12.1201 146.087C11.9262 146.087 11.7371 146.027 11.5788 145.915C11.4204 145.802 11.3004 145.645 11.2353 145.462C11.1701 145.279 11.1631 145.081 11.215 144.894C11.2668 144.708 11.3753 144.541 11.5252 144.419L14.3294 142.132C14.5226 141.974 14.7703 141.9 15.0182 141.925C15.2662 141.95 15.4939 142.073 15.6513 142.266C15.8087 142.46 15.883 142.708 15.8578 142.956C15.8325 143.202 15.7098 143.43 15.5167 143.588L12.7125 145.875C12.5453 146.012 12.336 146.087 12.1201 146.087Z" fill="#005A5F"/>
<path d="M25.1929 145.518C24.999 145.518 24.8097 145.458 24.6512 145.346C24.4926 145.235 24.3725 145.077 24.3073 144.894C24.2421 144.711 24.2351 144.514 24.2871 144.327C24.3392 144.14 24.4478 143.974 24.598 143.851L39.7785 131.466C39.8735 131.382 39.9843 131.319 40.1042 131.279C40.2242 131.24 40.351 131.225 40.4768 131.235C40.6027 131.247 40.7252 131.282 40.8369 131.341C40.9487 131.4 41.0474 131.481 41.1273 131.579C41.2072 131.676 41.2665 131.789 41.3018 131.91C41.3371 132.032 41.3475 132.158 41.3326 132.285C41.3176 132.41 41.2775 132.53 41.2148 132.641C41.1519 132.751 41.0677 132.846 40.967 132.922L25.7852 145.306C25.6183 145.443 25.4089 145.518 25.1929 145.518Z" fill="#005A5F"/>
<path d="M67.4631 131.767H58.4808C58.2316 131.767 57.9927 131.668 57.8166 131.491C57.6404 131.316 57.5414 131.076 57.5414 130.827C57.5414 130.578 57.6404 130.339 57.8166 130.163C57.9927 129.987 58.2316 129.888 58.4808 129.888H67.4631C67.7122 129.888 67.9511 129.987 68.1274 130.163C68.3035 130.339 68.4024 130.578 68.4024 130.827C68.4024 131.076 68.3035 131.316 68.1274 131.491C67.9511 131.668 67.7122 131.767 67.4631 131.767Z" fill="white"/>
<path d="M121.761 153.718H62.382L72.097 130.605C72.5633 129.515 73.3407 128.587 74.332 127.935C75.3233 127.284 76.4845 126.941 77.6703 126.946H106.699C107.893 126.94 109.062 127.289 110.057 127.949C111.052 128.608 111.829 129.548 112.29 130.651L121.761 153.718Z" fill="#005A5F"/>
<path d="M121.761 154.657H62.3821C62.227 154.657 62.0743 154.619 61.9377 154.546C61.8011 154.473 61.6847 154.366 61.5989 154.237C61.5133 154.108 61.4608 153.961 61.4465 153.805C61.4321 153.651 61.4563 153.496 61.5166 153.353L71.2279 130.241C71.7634 128.979 72.6605 127.903 73.8062 127.149C74.952 126.396 76.2953 125.998 77.6665 126.007H106.699C108.08 125.997 109.433 126.4 110.583 127.164C111.734 127.928 112.631 129.018 113.159 130.294L122.63 153.366C122.689 153.509 122.712 153.664 122.695 153.817C122.68 153.969 122.626 154.117 122.541 154.245C122.455 154.373 122.34 154.478 122.203 154.551C122.068 154.623 121.916 154.662 121.761 154.662V154.657ZM63.796 152.778H120.36L111.422 131.008C111.035 130.076 110.378 129.282 109.537 128.726C108.696 128.17 107.707 127.877 106.699 127.885H77.6703C76.6687 127.878 75.6873 128.166 74.8496 128.716C74.0119 129.264 73.3552 130.048 72.9625 130.97L63.796 152.778Z" fill="#005A5F"/>
<path d="M73.5624 146.087C73.3683 146.087 73.1789 146.027 73.0202 145.915C72.8615 145.804 72.7413 145.645 72.6763 145.462C72.6112 145.279 72.6044 145.081 72.6568 144.894C72.7091 144.707 72.8181 144.541 72.9687 144.419L84.5811 134.945C84.6768 134.868 84.7869 134.809 84.905 134.774C85.0232 134.739 85.1472 134.726 85.27 134.739C85.3927 134.751 85.5118 134.787 85.6205 134.846C85.7291 134.905 85.8251 134.984 85.903 135.081C85.9811 135.176 86.0394 135.286 86.0748 135.404C86.1102 135.521 86.1221 135.647 86.1096 135.769C86.097 135.892 86.0605 136.011 86.002 136.119C85.9434 136.228 85.8641 136.324 85.7684 136.402L74.156 145.875C73.9884 146.012 73.7788 146.087 73.5624 146.087Z" fill="white"/>
<path d="M86.6326 145.518C86.4388 145.518 86.2497 145.458 86.0914 145.347C85.933 145.235 85.8131 145.076 85.7481 144.894C85.683 144.712 85.6761 144.514 85.7282 144.326C85.7803 144.139 85.8888 143.974 86.0389 143.851L101.219 131.466C101.413 131.308 101.66 131.234 101.908 131.259C102.156 131.284 102.384 131.407 102.541 131.601C102.699 131.794 102.773 132.042 102.748 132.29C102.723 132.537 102.6 132.765 102.407 132.923L87.2262 145.307C87.0589 145.444 86.849 145.518 86.6326 145.518Z" fill="white"/>
<path d="M95.9129 149.993C95.719 149.993 95.5298 149.933 95.3713 149.821C95.2127 149.71 95.0926 149.552 95.0273 149.369C94.9622 149.186 94.9551 148.989 95.0072 148.802C95.0593 148.615 95.1679 148.449 95.318 148.326L102.278 142.648C102.472 142.5 102.716 142.435 102.958 142.463C103.199 142.492 103.421 142.614 103.575 142.803C103.729 142.991 103.804 143.232 103.783 143.475C103.763 143.718 103.649 143.944 103.466 144.104L96.5053 149.781C96.3384 149.918 96.129 149.993 95.9129 149.993Z" fill="white"/>
<path d="M35.6893 149.993C35.4954 149.993 35.3062 149.933 35.1476 149.822C34.9891 149.71 34.869 149.552 34.8037 149.369C34.7386 149.187 34.7316 148.989 34.7836 148.802C34.8357 148.615 34.9443 148.449 35.0944 148.326L42.0553 142.648C42.2486 142.49 42.4963 142.416 42.7442 142.441C42.9921 142.466 43.2198 142.589 43.3773 142.783C43.5347 142.976 43.609 143.224 43.5838 143.472C43.5585 143.719 43.4358 143.946 43.2426 144.104L36.2855 149.781C36.1174 149.919 35.9066 149.994 35.6893 149.993Z" fill="#005A5F"/>
<path d="M90.2646 126.599C90.0702 126.599 89.8805 126.539 89.7216 126.427C89.5628 126.315 89.4427 126.156 89.3779 125.973L79.7981 98.461C79.7521 98.3292 79.736 98.189 79.7511 98.0503C79.7661 97.9116 79.8118 97.7779 79.8849 97.6592C79.9582 97.5403 80.0569 97.4394 80.1741 97.3636C80.2912 97.2879 80.4239 97.2391 80.5621 97.2211L117.33 92.3505C120.326 91.9747 123.204 93.5866 124.336 96.263C124.434 96.4926 124.435 96.7512 124.342 96.982C124.248 97.213 124.067 97.3972 123.836 97.4941C123.607 97.5911 123.349 97.5929 123.117 97.4993C122.887 97.4056 122.703 97.224 122.605 96.9944C121.799 95.0882 119.725 93.9448 117.57 94.2141L81.951 98.9319L90.8908 124.629L131.497 119.314L124.305 101.066C124.26 100.951 124.238 100.828 124.24 100.704C124.242 100.581 124.27 100.459 124.318 100.345C124.367 100.232 124.439 100.129 124.528 100.043C124.618 99.9576 124.722 99.8901 124.837 99.8449C124.952 99.7997 125.075 99.7775 125.199 99.7798C125.323 99.7822 125.444 99.8087 125.558 99.8582C125.671 99.9075 125.774 99.9788 125.86 100.068C125.945 100.157 126.013 100.262 126.058 100.377L133.698 119.745C133.75 119.877 133.772 120.02 133.76 120.163C133.749 120.304 133.705 120.442 133.634 120.565C133.561 120.688 133.461 120.793 133.342 120.872C133.223 120.951 133.088 121.001 132.946 121.02L90.3886 126.59C90.3475 126.597 90.306 126.599 90.2646 126.599Z" fill="#005A5F"/>
<path d="M132.993 153.193L132.742 151.329L137.425 150.716C137.548 150.699 137.672 150.707 137.792 150.738C137.911 150.771 138.022 150.825 138.12 150.9C138.219 150.975 138.302 151.068 138.363 151.175C138.426 151.282 138.466 151.399 138.482 151.521C138.498 151.644 138.491 151.768 138.46 151.888C138.427 152.007 138.373 152.118 138.298 152.217C138.223 152.315 138.13 152.398 138.022 152.459C137.916 152.522 137.798 152.562 137.676 152.578L132.993 153.193Z" fill="#005A5F"/>
<path d="M141.864 152.022C141.624 152.023 141.394 151.934 141.219 151.771C141.043 151.609 140.936 151.384 140.92 151.145C140.904 150.906 140.979 150.67 141.132 150.485C141.284 150.301 141.502 150.181 141.738 150.151L160.714 147.663L158.248 141.8C158.2 141.686 158.175 141.564 158.175 141.44C158.174 141.317 158.198 141.195 158.245 141.081C158.291 140.967 158.36 140.863 158.447 140.775C158.533 140.687 158.637 140.617 158.75 140.57C158.864 140.522 158.987 140.497 159.109 140.496C159.233 140.496 159.355 140.52 159.469 140.566C159.584 140.612 159.688 140.681 159.776 140.768C159.863 140.855 159.932 140.958 159.98 141.072L162.922 148.07C162.978 148.203 163.003 148.348 162.994 148.493C162.986 148.637 162.944 148.777 162.872 148.902C162.8 149.027 162.7 149.135 162.58 149.215C162.46 149.297 162.323 149.348 162.179 149.367L141.983 152.014C141.944 152.019 141.904 152.022 141.864 152.022Z" fill="#005A5F"/>
<path d="M121.761 154.657C121.589 154.657 121.422 154.611 121.275 154.523C121.127 154.434 121.007 154.308 120.927 154.156L107.211 127.68C107.141 127.546 107.105 127.396 107.106 127.244C107.107 127.093 107.144 126.944 107.215 126.81C107.285 126.676 107.388 126.562 107.512 126.475C107.637 126.389 107.781 126.335 107.931 126.316L146.357 121.578C149.374 121.203 152.282 122.814 153.427 125.488L158.399 137.316C158.496 137.545 158.497 137.805 158.403 138.035C158.309 138.265 158.127 138.45 157.897 138.546C157.668 138.642 157.41 138.644 157.178 138.55C156.948 138.456 156.764 138.273 156.667 138.044L151.698 126.222C150.882 124.319 148.779 123.173 146.586 123.443L109.5 128.014L122.292 152.701L126.458 152.155C126.58 152.138 126.704 152.146 126.825 152.177C126.944 152.21 127.055 152.264 127.153 152.339C127.252 152.414 127.334 152.507 127.396 152.614C127.458 152.721 127.498 152.839 127.515 152.96C127.531 153.083 127.523 153.207 127.492 153.327C127.46 153.446 127.406 153.557 127.331 153.656C127.255 153.754 127.163 153.837 127.055 153.898C126.949 153.961 126.831 154.001 126.708 154.017L121.889 154.643C121.847 154.651 121.805 154.656 121.761 154.657Z" fill="#005A5F"/>
<path d="M129.465 113.359C129.465 113.359 130.954 119.319 122.772 120.539L132.541 119.537L129.465 113.359Z" fill="#005A5F"/>
<path d="M127.143 132.547C126.907 132.546 126.681 132.454 126.509 132.294C126.336 132.132 126.231 131.912 126.213 131.676C126.196 131.441 126.268 131.208 126.415 131.024C126.562 130.839 126.772 130.716 127.005 130.679L147.824 127.566C147.948 127.543 148.074 127.547 148.197 127.575C148.32 127.602 148.435 127.655 148.538 127.728C148.639 127.801 148.726 127.894 148.792 128.002C148.857 128.108 148.9 128.228 148.918 128.352C148.937 128.476 148.931 128.603 148.9 128.724C148.868 128.846 148.812 128.961 148.737 129.06C148.66 129.16 148.564 129.244 148.455 129.307C148.346 129.368 148.226 129.408 148.101 129.423L127.283 132.537C127.237 132.544 127.19 132.547 127.143 132.547Z" fill="#005A5F"/>
<path d="M106.75 116.394C106.513 116.394 106.284 116.306 106.11 116.144C105.936 115.982 105.83 115.761 105.812 115.524C105.795 115.287 105.868 115.053 106.016 114.868C106.165 114.682 106.378 114.561 106.612 114.526L117.021 112.969C117.143 112.95 117.267 112.957 117.388 112.987C117.507 113.017 117.619 113.069 117.719 113.143C117.818 113.216 117.902 113.309 117.965 113.415C118.029 113.52 118.071 113.638 118.089 113.759C118.108 113.881 118.101 114.006 118.071 114.125C118.043 114.245 117.989 114.358 117.916 114.457C117.842 114.556 117.75 114.64 117.644 114.704C117.538 114.768 117.421 114.809 117.299 114.828L106.89 116.383C106.844 116.391 106.797 116.394 106.75 116.394Z" fill="#005A5F"/>
<path d="M96.3413 117.951C96.104 117.951 95.8754 117.862 95.7014 117.701C95.5275 117.539 95.421 117.318 95.4036 117.081C95.3862 116.844 95.459 116.61 95.6074 116.425C95.7558 116.239 95.9687 116.118 96.2035 116.083L101.213 115.331C101.337 115.31 101.463 115.312 101.585 115.341C101.708 115.369 101.823 115.421 101.925 115.494C102.026 115.568 102.112 115.661 102.178 115.767C102.243 115.875 102.286 115.994 102.305 116.118C102.323 116.242 102.317 116.368 102.286 116.49C102.255 116.611 102.199 116.725 102.124 116.824C102.048 116.924 101.953 117.008 101.844 117.071C101.736 117.133 101.616 117.174 101.491 117.189L96.4816 117.94C96.4352 117.948 96.3883 117.951 96.3413 117.951Z" fill="#005A5F"/>
<path d="M124.797 139.464C124.561 139.463 124.335 139.371 124.163 139.211C123.99 139.049 123.885 138.829 123.868 138.594C123.85 138.358 123.923 138.125 124.069 137.941C124.216 137.756 124.426 137.633 124.659 137.597L130.395 136.739C130.639 136.709 130.884 136.775 131.079 136.923C131.274 137.071 131.405 137.29 131.44 137.532C131.476 137.775 131.417 138.021 131.273 138.22C131.13 138.418 130.915 138.554 130.673 138.596L124.937 139.454C124.891 139.462 124.845 139.464 124.797 139.464Z" fill="#005A5F"/>
<path d="M93.859 97.3015C93.859 97.3015 84.1477 99.5008 84.8416 103.544L81.5653 98.0329L93.859 97.3015Z" fill="#005A5F"/>
<path d="M92.6617 125.382H33.2797L42.9934 101.786C43.4479 100.682 44.2203 99.7368 45.2126 99.0716C46.2047 98.4065 47.3721 98.051 48.5667 98.0503H77.5989C78.802 98.0509 79.9775 98.4114 80.9741 99.0854C81.9706 99.7595 82.7426 100.716 83.191 101.833L92.6617 125.382Z" fill="#005A5F"/>
<path d="M92.6617 126.321H33.2797C33.1253 126.321 32.9732 126.284 32.837 126.211C32.7007 126.138 32.5845 126.033 32.4984 125.904C32.4125 125.776 32.3595 125.629 32.3443 125.475C32.3289 125.322 32.3516 125.166 32.4105 125.024L42.1255 101.428C42.6481 100.15 43.5401 99.056 44.6874 98.287C45.8349 97.518 47.1855 97.1086 48.5667 97.1111H77.5989C78.9903 97.1076 80.3508 97.5224 81.5034 98.3019C82.656 99.0813 83.5478 100.189 84.0626 101.482L93.5334 125.027C93.591 125.17 93.6124 125.326 93.596 125.478C93.5795 125.632 93.5255 125.779 93.439 125.907C93.3523 126.033 93.2356 126.138 93.0992 126.21C92.9628 126.281 92.8109 126.319 92.6567 126.317L92.6617 126.321ZM34.6849 124.443H91.2665L82.3143 102.182C81.9383 101.238 81.2871 100.429 80.4454 99.8595C79.6036 99.2902 78.6101 98.9872 77.5939 98.9897H48.5704C47.5619 98.9879 46.5755 99.2868 45.7376 99.8484C44.8997 100.41 44.2482 101.209 43.8664 102.142L34.6849 124.443Z" fill="#005A5F"/>
<path d="M44.4625 116.962C44.2687 116.962 44.0796 116.902 43.9213 116.79C43.7629 116.679 43.643 116.52 43.578 116.338C43.5129 116.155 43.506 115.957 43.5581 115.769C43.6102 115.583 43.7187 115.417 43.8688 115.295L55.4812 105.821C55.5764 105.74 55.6869 105.679 55.806 105.641C55.9252 105.603 56.0507 105.589 56.1753 105.601C56.2998 105.612 56.4209 105.648 56.5314 105.707C56.6418 105.765 56.7394 105.846 56.8184 105.942C56.8975 106.039 56.9564 106.151 56.9918 106.271C57.0271 106.391 57.038 106.517 57.0241 106.641C57.01 106.765 56.9715 106.886 56.9104 106.995C56.8494 107.104 56.7671 107.2 56.6685 107.277L45.0524 116.751C44.8857 116.887 44.6774 116.962 44.4625 116.962Z" fill="white"/>
<path d="M64.0891 111.047C63.8952 111.047 63.706 110.987 63.5474 110.875C63.3889 110.764 63.2688 110.606 63.2035 110.423C63.1384 110.24 63.1314 110.042 63.1834 109.856C63.2355 109.669 63.344 109.503 63.4942 109.38L72.1208 102.342C72.2164 102.264 72.3264 102.206 72.4446 102.17C72.5627 102.135 72.6867 102.123 72.8094 102.135C72.9322 102.148 73.0513 102.184 73.16 102.243C73.2687 102.301 73.3647 102.38 73.4428 102.476C73.5208 102.571 73.5793 102.681 73.6149 102.799C73.6503 102.918 73.6623 103.042 73.6499 103.164C73.6375 103.287 73.6011 103.406 73.5426 103.515C73.4842 103.624 73.4049 103.72 73.3094 103.798L64.6828 110.835C64.5154 110.973 64.3055 111.047 64.0891 111.047Z" fill="white"/>
<path d="M57.5365 116.394C57.3426 116.394 57.1535 116.334 56.9952 116.223C56.8367 116.11 56.7168 115.952 56.6516 115.77C56.5865 115.587 56.5794 115.389 56.6313 115.202C56.6832 115.016 56.7916 114.849 56.9416 114.726L59.7244 112.457C59.9181 112.305 60.1631 112.236 60.4072 112.264C60.6513 112.292 60.8749 112.413 61.0302 112.603C61.1855 112.794 61.26 113.038 61.2378 113.282C61.2157 113.526 61.0987 113.753 60.9117 113.912L58.1288 116.183C57.9617 116.319 57.7524 116.394 57.5365 116.394Z" fill="white"/>
<path d="M66.8131 122.7C66.6194 122.7 66.4302 122.64 66.2719 122.529C66.1135 122.417 65.9937 122.258 65.9287 122.077C65.8635 121.894 65.8566 121.696 65.9087 121.508C65.9608 121.321 66.0693 121.156 66.2195 121.033L73.1791 115.355C73.3723 115.197 73.6201 115.123 73.868 115.148C74.1159 115.173 74.3436 115.296 74.5011 115.489C74.6585 115.683 74.7328 115.931 74.7076 116.179C74.6823 116.426 74.5595 116.654 74.3664 116.812L67.4068 122.489C67.2394 122.627 67.0295 122.7 66.8131 122.7Z" fill="white"/>
<path d="M79.3686 94.9268C79.1195 94.9268 78.8805 94.8279 78.7044 94.6516C78.5282 94.4755 78.4293 94.2366 78.4293 93.9875V0.939311C78.4293 0.690206 78.5282 0.451246 78.7044 0.275156C78.8805 0.0989416 79.1195 0 79.3686 0C79.6177 0 79.8566 0.0989416 80.0327 0.275156C80.2089 0.451246 80.3079 0.690206 80.3079 0.939311V93.9938C80.3062 94.2417 80.2066 94.4791 80.0306 94.6539C79.8546 94.8287 79.6167 94.9268 79.3686 94.9268Z" fill="#005A5F"/>
<path d="M113.042 24.1607C113.042 22.3944 112.627 20.9792 111.799 19.9149C110.813 18.6383 109.35 18 107.408 18C106.267 18.0382 105.15 18.3283 104.136 18.8492C102.957 19.4054 102.363 19.9106 102.363 20.3607C102.408 20.4528 102.468 20.5363 102.543 20.607C102.633 20.6917 102.699 20.7986 102.735 20.9169H103.542C104.425 20.4555 105.03 20.1484 105.357 19.9955C106.522 19.4521 107.334 19.1803 107.792 19.1803C108.615 19.1803 109.405 19.5021 109.992 20.0762C110.254 20.2803 110.47 20.537 110.626 20.8296C110.782 21.1222 110.875 21.4442 110.897 21.7746C110.897 22.9068 110.043 23.7206 108.335 24.2159L103.563 25.5746C101.855 26.3615 101.001 27.6593 101.001 29.468C100.991 29.9702 101.092 30.4683 101.295 30.928C101.499 31.3877 101.801 31.7979 102.179 32.1301C102.938 32.8346 103.943 33.2183 104.982 33.2001C105.709 33.192 106.427 33.0299 107.087 32.7246C107.698 32.4484 108.272 32.0975 108.796 31.6801C108.394 31.7183 108.006 31.748 107.63 31.7778C107.254 31.8075 106.921 31.816 106.622 31.816C105.813 31.8594 105.007 31.6957 104.281 31.3404C103.909 31.1225 103.606 30.8043 103.408 30.4226C103.21 30.041 103.125 29.6114 103.162 29.1835C103.162 28.0881 103.905 27.0521 105.392 26.0756C106.73 25.1953 107.926 24.7565 108.979 24.7594C109.273 24.7343 109.568 24.7751 109.843 24.8787C110.118 24.9823 110.366 25.1462 110.569 25.358C110.944 25.7911 111.132 26.4988 111.132 27.481V27.9056C111.132 28.3445 111.039 28.7786 110.859 29.1793C110.47 29.9662 109.968 30.6927 109.368 31.3362C109.928 31.5436 110.387 31.9571 110.65 32.4911C110.794 32.736 111.006 32.9349 111.26 33.0643C111.514 33.1937 111.8 33.2481 112.085 33.2213C112.332 33.2213 112.555 33.0133 112.755 32.5972C112.952 32.2009 113.054 31.7652 113.054 31.3234L113.042 24.1607Z" fill="white"/>
</svg>
