<svg width="47" height="45" viewBox="0 0 47 45" fill="none" xmlns="http://www.w3.org/2000/svg">
<path d="M46.581 17.8636L25.6295 0.746457C25.0358 0.263176 24.2991 0 23.5399 0C22.7807 0 22.044 0.263176 21.4504 0.746457L0.498842 17.8636C0.36998 17.9511 0.260313 18.0649 0.176787 18.198C0.0932614 18.331 0.0376977 18.4803 0.013616 18.6364C-0.0104657 18.7924 -0.00254051 18.9519 0.0368895 19.1047C0.0763196 19.2575 0.146395 19.4003 0.242677 19.524C0.338958 19.6477 0.459347 19.7497 0.596217 19.8234C0.733087 19.8971 0.883455 19.9409 1.03779 19.9522C1.19213 19.9635 1.34708 19.9419 1.49282 19.8888C1.63856 19.8357 1.77191 19.7523 1.88444 19.6438L5.6613 16.5627V41.5766C5.6613 42.4845 6.01448 43.3553 6.64315 43.9973C7.27182 44.6393 8.12447 45 9.01354 45H16.8354C17.1318 45 17.416 44.8798 17.6256 44.6658C17.8351 44.4518 17.9529 44.1615 17.9529 43.8589V23.3183C17.9529 22.4103 18.306 21.5396 18.9347 20.8975C19.5634 20.2555 20.416 19.8948 21.3051 19.8948H25.7748C26.6638 19.8948 27.5165 20.2555 28.1452 20.8975C28.7738 21.5396 29.127 22.4103 29.127 23.3183V43.8589C29.127 44.1615 29.2447 44.4518 29.4543 44.6658C29.6638 44.8798 29.9481 45 30.2444 45H38.0663C38.9554 45 39.8081 44.6393 40.4367 43.9973C41.0654 43.3553 41.4186 42.4845 41.4186 41.5766V16.5627L45.1954 19.6438C45.392 19.8049 45.6362 19.8934 45.8882 19.8948C46.0561 19.8941 46.2216 19.8547 46.3725 19.7796C46.5234 19.7045 46.6558 19.5957 46.7598 19.4612C46.9425 19.2247 47.0263 18.9241 46.9928 18.6248C46.9593 18.3255 46.8113 18.0519 46.581 17.8636ZM39.6084 10.4234C39.7727 10.556 39.9703 10.6388 40.1785 10.6623C40.3867 10.6858 40.5972 10.649 40.7859 10.5562C40.9747 10.4634 41.1341 10.3183 41.2459 10.1374C41.3578 9.95653 41.4176 9.74719 41.4186 9.53326V3.91884C41.4186 3.61619 41.3008 3.32593 41.0913 3.11193C40.8817 2.89792 40.5975 2.77769 40.3012 2.77769H33.4291C33.1982 2.77905 32.9734 2.8534 32.7856 2.99052C32.5978 3.12765 32.4562 3.32081 32.3803 3.54346C32.3043 3.76611 32.2978 4.00731 32.3615 4.23392C32.4253 4.46052 32.5562 4.66139 32.7363 4.80893L39.6084 10.4234Z" fill="#2757C3"/>
</svg>
