<svg width="53" height="50" viewBox="0 0 53 50" fill="none" xmlns="http://www.w3.org/2000/svg">
<path d="M26.0107 34C35.1234 34 42.5107 26.6127 42.5107 17.5C42.5107 8.3873 35.1234 1 26.0107 1C16.898 1 9.51065 8.3873 9.51065 17.5C9.51065 26.6127 16.898 34 26.0107 34Z" fill="#2757C3" stroke="white" stroke-width="2" stroke-linecap="round" stroke-linejoin="round"/>
<path d="M1 48.4351C3.53574 44.046 7.18186 40.4015 11.5721 37.8676C15.9623 35.3338 20.942 33.9999 26.0109 34C31.0799 34.0001 36.0596 35.334 40.4497 37.8679C44.8399 40.4018 48.4859 44.0464 51.0216 48.4356" fill="#2757C3"/>
<path d="M1 48.4351C3.53574 44.046 7.18186 40.4015 11.5721 37.8676C15.9623 35.3338 20.942 33.9999 26.0109 34C31.0799 34.0001 36.0596 35.334 40.4497 37.8679C44.8399 40.4018 48.4859 44.0464 51.0216 48.4356" stroke="white" stroke-width="2" stroke-linecap="round" stroke-linejoin="round"/>
</svg>
