<svg width="56" height="63" viewBox="0 0 56 63" fill="none" xmlns="http://www.w3.org/2000/svg">
<path d="M54.6025 26.6548H49.2933C48.5786 26.6548 48.0004 27.2331 48.0004 27.9477C48.0004 28.6623 48.5786 29.2406 49.2933 29.2406H54.6025C55.3172 29.2406 55.8954 28.6623 55.8954 27.9477C55.8954 27.2331 55.3172 26.6548 54.6025 26.6548ZM43.0409 14.1475C43.3717 14.1475 43.7025 14.0212 43.955 13.7687L47.71 10.0137C48.215 9.50866 48.215 8.69049 47.71 8.18545C47.2049 7.68041 46.3868 7.68041 45.8817 8.18545L42.1267 11.9404C41.6217 12.4455 41.6217 13.2636 42.1267 13.7687C42.3793 14.0212 42.7101 14.1475 43.0409 14.1475ZM27.9477 7.89632C28.6623 7.89632 29.2406 7.31805 29.2406 6.60341V1.29291C29.2406 0.578272 28.6623 0 27.9477 0C27.2331 0 26.6548 0.578272 26.6548 1.29291V6.60341C26.6548 7.31805 27.2331 7.89632 27.9477 7.89632ZM11.9404 13.7687C12.193 14.0212 12.5238 14.1475 12.8546 14.1475C13.1854 14.1475 13.5162 14.0212 13.7687 13.7687C14.2737 13.2636 14.2737 12.4455 13.7687 11.9404L10.0137 8.18545C9.50866 7.68041 8.69049 7.68041 8.18545 8.18545C7.68041 8.69049 7.68041 9.50866 8.18545 10.0137L11.9404 13.7687ZM6.60215 26.6548H1.29291C0.578272 26.6548 0 27.2331 0 27.9477C0 28.6623 0.578272 29.2406 1.29291 29.2406H6.60215C7.31678 29.2406 7.89505 28.6623 7.89505 27.9477C7.89505 27.2331 7.31678 26.6548 6.60215 26.6548ZM11.9404 42.1267L8.18545 45.8817C7.68041 46.3868 7.68041 47.2049 8.18545 47.71C8.43797 47.9625 8.76878 48.0887 9.09958 48.0887C9.43038 48.0887 9.76118 47.9625 10.0137 47.71L13.7687 43.955C14.2737 43.4499 14.2737 42.6318 13.7687 42.1267C13.2636 41.6217 12.4455 41.6217 11.9404 42.1267ZM43.955 42.1267C43.4499 41.6217 42.6318 41.6217 42.1267 42.1267C41.6217 42.6318 41.6217 43.4499 42.1267 43.955L45.8817 47.71C46.1342 47.9625 46.465 48.0887 46.7958 48.0887C47.1266 48.0887 47.4575 47.9625 47.71 47.71C48.215 47.2049 48.215 46.3868 47.71 45.8817L43.955 42.1267ZM33.9779 56.2868H33.7528V55.6854H22.0391V56.2868H21.9175C21.2029 56.2868 20.6246 56.8651 20.6246 57.5797C20.6246 58.2944 21.2029 58.8726 21.9175 58.8726H22.0391V59.3443C22.0391 60.8441 23.2545 62.0594 24.7543 62.0594H31.0378C32.5375 62.0594 33.7528 60.8441 33.7528 59.3443V58.8726H33.9779C34.6925 58.8726 35.2708 58.2944 35.2708 57.5797C35.2708 56.8651 34.6925 56.2868 33.9779 56.2868Z" fill="#3B4652"/>
<path d="M39.8166 15.6182C36.4292 12.3601 31.9428 10.6793 27.2496 10.8474C18.0441 11.2223 10.5323 19.3159 10.8426 28.5344C10.9977 32.982 12.8336 37.1451 16.0272 40.2481C17.876 42.0323 19.4016 44.269 20.4359 46.7255C21.3022 48.7553 21.8452 50.9404 21.9874 53.0996H33.8046C34.1278 48.277 36.287 43.6225 39.6873 40.4162C43.1523 37.158 45.0658 32.7234 45.0658 27.9396C45.0658 23.2463 43.204 18.8634 39.8166 15.6182ZM36.1318 27.3448L27.9736 35.5031C27.7279 35.7487 27.3918 35.8781 27.0556 35.8781C26.7324 35.8781 26.3962 35.7487 26.1506 35.5031L22.3494 31.7019C21.8452 31.1977 21.8452 30.3703 22.3494 29.866C22.8537 29.3618 23.6682 29.3618 24.1724 29.866L27.0556 32.7621L34.3088 25.5089C34.813 25.0047 35.6276 25.0047 36.1318 25.5089C36.636 26.0132 36.636 26.8407 36.1318 27.3448Z" fill="#2757C3"/>
</svg>
