<svg width="47" height="53" viewBox="0 0 47 53" fill="none" xmlns="http://www.w3.org/2000/svg">
<path d="M38.1282 35.36C40.8269 38.1759 43.4717 40.9347 46.2544 43.8393C44.715 45.0937 43.1439 46.5333 41.4176 47.7512C37.7275 50.3549 33.5717 51.8895 29.0818 52.2126C19.2182 52.9237 10.8892 49.875 4.87098 41.6997C1.99489 37.791 0.509335 33.3312 0.113398 28.4976C-0.356976 22.7802 0.607528 17.3495 3.54063 12.3845C7.47784 5.72006 13.3963 1.84305 20.973 0.49369C28.3501 -0.819238 35.2441 0.454097 41.4762 4.7033C43.1629 5.8531 44.6754 7.25947 46.2591 8.53914C43.4511 11.3471 40.7477 14.049 38.0157 16.781C37.2112 16.1126 36.4019 15.3999 35.553 14.7379C30.0716 10.4697 21.7648 10.5553 16.4023 14.9692C13.7859 17.1215 12.3019 19.9706 11.7714 23.2775C11.0603 27.712 11.8411 31.8535 14.6696 35.4423C17.2401 38.7048 20.6926 40.3789 24.8041 40.7273C29.4239 41.1185 33.4228 39.7263 36.7851 36.5224C37.1636 36.1613 37.5754 35.8367 38.1313 35.3584L38.1282 35.36Z" fill="#1D303A"/>
<path d="M17.0659 26.1694C17.0785 21.2091 20.9571 17.4635 26.0742 17.4714C30.6576 17.4778 34.5315 21.4625 34.5362 26.1742C34.541 31.0569 30.5927 35.0194 25.7527 34.9877C20.908 34.9545 17.0532 31.0442 17.0659 26.171V26.1694Z" fill="#EB4F3C"/>
</svg>
